<svg id="Layer_1" data-name="Layer 1" xmlns="http://www.w3.org/2000/svg" xmlns:xlink="http://www.w3.org/1999/xlink" viewBox="0 0 761.28 351.66"><defs><style>.cls-1,.cls-10,.cls-11,.cls-17,.cls-2,.cls-7,.cls-8,.cls-9{opacity:0.5;}.cls-1{fill:url(#Degradado_sin_nombre_42);}.cls-2{fill:url(#Degradado_sin_nombre_42-2);}.cls-3{fill:#5bb59b;}.cls-4{fill:#fff;}.cls-5{fill:#524f63;}.cls-6{fill:#63a590;}.cls-7{fill:url(#Degradado_sin_nombre_42-3);}.cls-8{fill:url(#Degradado_sin_nombre_42-4);}.cls-9{fill:url(#Degradado_sin_nombre_42-5);}.cls-10{fill:url(#Degradado_sin_nombre_42-6);}.cls-11{fill:url(#Degradado_sin_nombre_42-7);}.cls-12{fill:#e0e4ed;}.cls-13{fill:#424051;}.cls-14{fill:#eebcc5;}.cls-15{fill:#9092ec;}.cls-16{fill:#ead18c;}.cls-17{fill:url(#Degradado_sin_nombre_15);}.cls-18{fill:#91616a;}.cls-19{fill:#5b61d3;}.cls-20{fill:#8385e6;}.cls-21{fill:url(#Degradado_sin_nombre_26);}.cls-22{fill:url(#Degradado_sin_nombre_15-2);}.cls-23,.cls-28{fill:#4a4549;}.cls-24{fill:#eff2f7;}.cls-25{fill:url(#Degradado_sin_nombre_26-2);}.cls-26{fill:#d98e9d;}.cls-27{fill:url(#Nueva_muestra_de_degradado_5);}.cls-28{opacity:0.7;}.cls-29{fill:#75454f;}.cls-30{fill:#8284e5;}.cls-31{fill:#37354c;}.cls-32{fill:url(#Degradado_sin_nombre_26-3);}.cls-33{fill:none;stroke:#524f63;stroke-miterlimit:10;}.cls-34{fill:#bcbace;}.cls-35{fill:url(#Degradado_sin_nombre_11);}</style><linearGradient id="Degradado_sin_nombre_42" x1="100.4" y1="290.58" x2="-18.49" y2="369.84" gradientUnits="userSpaceOnUse"><stop offset="0" stop-color="#4a50c2" stop-opacity="0.02"/><stop offset="1" stop-color="#444bcc" stop-opacity="0.64"/></linearGradient><linearGradient id="Degradado_sin_nombre_42-2" x1="769.29" y1="292.2" x2="650.4" y2="371.47" xlink:href="#Degradado_sin_nombre_42"/><linearGradient id="Degradado_sin_nombre_42-3" x1="204.63" y1="271.91" x2="-63.24" y2="450.5" xlink:href="#Degradado_sin_nombre_42"/><linearGradient id="Degradado_sin_nombre_42-4" x1="753.84" y1="280.49" x2="485.97" y2="459.07" xlink:href="#Degradado_sin_nombre_42"/><linearGradient id="Degradado_sin_nombre_42-5" x1="392.95" y1="269.48" x2="125.08" y2="448.06" xlink:href="#Degradado_sin_nombre_42"/><linearGradient id="Degradado_sin_nombre_42-6" x1="612.6" y1="266.69" x2="344.72" y2="445.27" xlink:href="#Degradado_sin_nombre_42"/><linearGradient id="Degradado_sin_nombre_42-7" x1="443.18" y1="272.92" x2="282.11" y2="380.3" xlink:href="#Degradado_sin_nombre_42"/><linearGradient id="Degradado_sin_nombre_15" x1="247.96" y1="150.94" x2="271.83" y2="150.94" gradientUnits="userSpaceOnUse"><stop offset="0" stop-color="#ead18c" stop-opacity="0"/><stop offset="1" stop-color="#524f63" stop-opacity="0.7"/></linearGradient><linearGradient id="Degradado_sin_nombre_26" x1="183.86" y1="155.12" x2="239.05" y2="155.12" gradientUnits="userSpaceOnUse"><stop offset="0" stop-color="#484ec2" stop-opacity="0"/><stop offset="1" stop-color="#444bcc" stop-opacity="0.5"/></linearGradient><linearGradient id="Degradado_sin_nombre_15-2" x1="257.01" y1="180.94" x2="374.65" y2="134.4" xlink:href="#Degradado_sin_nombre_15"/><linearGradient id="Degradado_sin_nombre_26-2" x1="377.39" y1="106.9" x2="399.44" y2="48.59" xlink:href="#Degradado_sin_nombre_26"/><linearGradient id="Nueva_muestra_de_degradado_5" x1="498.9" y1="153.81" x2="551.19" y2="153.81" gradientUnits="userSpaceOnUse"><stop offset="0" stop-color="#b6567a" stop-opacity="0"/><stop offset="1" stop-color="#c45771"/></linearGradient><linearGradient id="Degradado_sin_nombre_26-3" x1="620.61" y1="150.9" x2="628.01" y2="105.34" xlink:href="#Degradado_sin_nombre_26"/><linearGradient id="Degradado_sin_nombre_11" x1="373.66" y1="219.05" x2="401.8" y2="89.17" gradientUnits="userSpaceOnUse"><stop offset="0" stop-color="#676475" stop-opacity="0"/><stop offset="1" stop-color="#524f63" stop-opacity="0.7"/></linearGradient></defs><title>team</title><path class="cls-1" d="M96.11,317.68c0,2.81-16.28,5.08-36.37,5.08s-36.36-2.27-36.36-5.08,16.28-5.08,36.36-5.08S96.11,314.88,96.11,317.68Z" transform="translate(-3.72 -0.46)"/><path class="cls-2" d="M765,319.31c0,2.8-16.28,5.08-36.36,5.08s-36.37-2.28-36.37-5.08,16.28-5.08,36.37-5.08S765,316.5,765,319.31Z" transform="translate(-3.72 -0.46)"/><path class="cls-3" d="M31.53,160.32S20.25,210.17,38.12,244L56,277.88S60.69,193.24,31.53,160.32Z" transform="translate(-3.72 -0.46)"/><path class="cls-4" d="M32.3,290.45c1.08,6.11,2.47,12.28,5.5,17.7s7.91,10.08,13.94,11.54a31.94,31.94,0,0,0,8.4.57c3.09-.08,6.32-.27,9-1.84,3.46-2,5.28-6,6.69-9.76A112.65,112.65,0,0,0,81.21,289c.7-3.87,1.15-8.06-.66-11.56-2.45-4.73-8.18-6.63-13.44-7.49-8.73-1.42-20.76-2.15-29.13,1.41C30.67,274.44,31.11,283.78,32.3,290.45Z" transform="translate(-3.72 -0.46)"/><path class="cls-5" d="M52.11,278c6.93.41,14.44-.65,18.81-3,.87-.48,1.65-1.08,1.23-1.65s-2.33-1-3.94-1.13c-8.33-.86-17.56-1.25-25.72.13C30.54,274.42,45.77,277.67,52.11,278Z" transform="translate(-3.72 -0.46)"/><path class="cls-6" d="M48.46,148.09s-5.64,95,7.53,129.79C56,277.88,64.45,193.24,48.46,148.09Z" transform="translate(-3.72 -0.46)"/><path class="cls-3" d="M54.32,277.19h3.06C61.87,258.38,75.32,197.47,68.21,169c0,0-22.57,79.94-16.93,97.81Z" transform="translate(-3.72 -0.46)"/><path class="cls-3" d="M702,163.57s-11.28,49.84,6.58,83.7l17.87,33.86S731.18,196.48,702,163.57Z" transform="translate(-3.72 -0.46)"/><path class="cls-4" d="M702.78,293.7c1.09,6.11,2.48,12.28,5.51,17.7s7.91,10.07,13.94,11.53a31.52,31.52,0,0,0,8.4.58c3.09-.08,6.31-.28,9-1.85,3.47-2,5.29-6,6.7-9.75a112.89,112.89,0,0,0,5.4-19.68c.7-3.87,1.15-8.07-.66-11.56-2.45-4.73-8.18-6.63-13.44-7.49-8.74-1.43-20.76-2.15-29.13,1.4C701.16,277.69,701.6,287,702.78,293.7Z" transform="translate(-3.72 -0.46)"/><path class="cls-5" d="M722.6,281.29c6.93.41,14.44-.66,18.81-3,.87-.47,1.64-1.07,1.23-1.65s-2.33-1-3.94-1.12c-8.33-.86-17.56-1.25-25.72.13C701,277.67,716.25,280.92,722.6,281.29Z" transform="translate(-3.72 -0.46)"/><path class="cls-6" d="M719,151.34s-5.64,95,7.52,129.79C726.47,281.13,734.94,196.48,719,151.34Z" transform="translate(-3.72 -0.46)"/><path class="cls-3" d="M724.81,280.43h3.06c4.49-18.8,17.94-79.71,10.83-108.14,0,0-22.57,79.94-16.93,97.81Z" transform="translate(-3.72 -0.46)"/><ellipse class="cls-7" cx="113.03" cy="332.98" rx="81.98" ry="10.55"/><path class="cls-8" d="M744.22,341.56c0,5.82-36.7,10.55-82,10.55s-82-4.73-82-10.55S617,331,662.24,331,744.22,335.73,744.22,341.56Z" transform="translate(-3.72 -0.46)"/><ellipse class="cls-9" cx="301.35" cy="330.55" rx="81.98" ry="10.55"/><path class="cls-10" d="M603,327.76c0,5.82-36.71,10.55-82,10.55s-82-4.73-82-10.55,36.71-10.56,82-10.56S603,321.93,603,327.76Z" transform="translate(-3.72 -0.46)"/><ellipse class="cls-11" cx="388.1" cy="309.64" rx="48.97" ry="10.55"/><path class="cls-12" d="M131.38,50.72l30.94,5L147.6,42.3l7-7.85,26.76,23.93a6.19,6.19,0,0,1-4.29,10.45L139.62,70Z" transform="translate(-3.72 -0.46)"/><polygon class="cls-5" points="140.58 129.54 139.97 331.47 129.34 332.23 121.96 160.91 112.1 161.67 102.02 330.71 91.4 329.95 92.74 125.89 140.58 129.54"/><path class="cls-12" d="M131.38,50.72l-35.72-1.5A12,12,0,0,0,86,53.44l10.44,81.8,48.83,1-4.46-75S132.68,50.77,131.38,50.72Z" transform="translate(-3.72 -0.46)"/><path class="cls-4" d="M147.48,35.05c-2,1.56-4.46,3-4.85,5.47a4.92,4.92,0,0,0,3.26,5,8.41,8.41,0,0,0,6.31-.48,10.86,10.86,0,0,0,6.4-7.76c.44-2.52-.69-7.37-3.62-8.26C151.66,28.07,149.89,33.14,147.48,35.05Z" transform="translate(-3.72 -0.46)"/><polygon class="cls-13" points="91.4 329.95 70.72 336.12 71.48 337.89 101.56 334.61 102.02 330.71 91.4 329.95"/><path class="cls-14" d="M28.3,51.35,25,45.78l3.61-7.54s2-5.24,2-6.88-1.64-3.93-3.27-1A60.63,60.63,0,0,1,24,35.62L14.32,21.2a1.47,1.47,0,0,0-1.23-.65h0a1.49,1.49,0,0,0-1.31,2.19L14,26.88a1.48,1.48,0,0,1-2.15,1.92l-.44-.3a5.44,5.44,0,0,0-7.52,1.32l-.17.23L3.89,35a10.92,10.92,0,0,0,4,8.09C13.61,47.75,23.8,56,24,55.28,24.37,54.3,28.3,51.35,28.3,51.35Z" transform="translate(-3.72 -0.46)"/><path class="cls-14" d="M139.15,19.17a3.24,3.24,0,0,0-3.93,1.22,4.87,4.87,0,0,0-.37,4.31,6.27,6.27,0,0,0,6.56,4.09,5.57,5.57,0,0,0,4.59-6,5.86,5.86,0,0,0-3.68-4.4,7.88,7.88,0,0,0-5.86.24" transform="translate(-3.72 -0.46)"/><path class="cls-14" d="M138.44,22.27,154.52,34.9s.38,6.89-3.45,7.66C149.92,43.32,135,27.63,135,27.63Z" transform="translate(-3.72 -0.46)"/><path class="cls-13" d="M133.06,332.68l.52,3.4,26,4.29s1.26-2,.5-2.27-16.43-6.18-16.43-6.18Z" transform="translate(-3.72 -0.46)"/><path class="cls-14" d="M107.66,33.44l.82,22.26a5.24,5.24,0,0,0,4.43,5.18h0a5.24,5.24,0,0,0,6-4.49l1.13-19.25Z" transform="translate(-3.72 -0.46)"/><rect class="cls-5" x="127.05" y="13.69" width="11.48" height="24.2" transform="translate(3.23 -24.31) rotate(10.54)"/><rect class="cls-5" x="127.07" y="13.57" width="10.21" height="24.2" transform="translate(3.2 -24.2) rotate(10.54)"/><path class="cls-4" d="M106.37,52.43s-1.63,1.4-1.74,1.87,6.28,10.47,6.28,10.47l4.3-6.87,5.35,6.87,2.21-12.45-3.6-.82-4.07,4.66-7.22-5.82Z" transform="translate(-3.72 -0.46)"/><polygon class="cls-15" points="111.49 57.44 108.81 61.87 110.67 65.24 109.63 67.8 110.67 100.6 114.4 104.79 117.77 100.84 114.28 67.68 112.3 65.01 114.75 61.63 111.49 57.44"/><path class="cls-14" d="M98.38,9.63c-2.26,5.22-2,11.2-.82,16.76,1.29,6,3.82,12.1,8.61,16s12.2,5,17.13,1.29c2.94-2.22,4.6-5.73,5.72-9.23,2.22-7,2.67-14.77-.22-21.49C123.49.65,104.72-5,98.38,9.63Z" transform="translate(-3.72 -0.46)"/><polygon class="cls-12" points="86.67 76.49 48.32 88.87 20.45 58.51 27.39 52.77 53.09 73.83 82.3 52.98 87.28 61.69 86.67 76.49"/><polygon class="cls-4" points="16.06 56.47 19.01 61.05 32.11 53.52 26.87 48.27 16.06 56.47"/><path class="cls-14" d="M91.82,19.52A4.42,4.42,0,0,0,89.53,24a9.77,9.77,0,0,0,2.28,4.85A8.14,8.14,0,0,0,94,31a6.82,6.82,0,0,0,2.75.9c1.18.16,2.58,0,3.27-.94a3.82,3.82,0,0,0,.54-1.79c.36-3-.41-4.14-2.12-6.29C96.81,20.88,94.75,18.23,91.82,19.52Z" transform="translate(-3.72 -0.46)"/><path class="cls-5" d="M102.78,19.72c-.24,3.09-1.71,6.26-4.43,7.77a18,18,0,0,1-3.45-9.13A16.86,16.86,0,0,1,97.48,6.7c2.7-3.78,7.36-5.85,12-6.19A30.36,30.36,0,0,1,123,3.17c1.86.76,4.25,1.54,5.67.11a10,10,0,0,1,1.15,4.56,6.19,6.19,0,0,1-.91,3.47c-1.13,1.71-3,3.61-5,4.06-15.13,3.38-22.16-4.83-22.23-4.6-.24.8.24,1.81.43,2.64A20.94,20.94,0,0,1,102.78,19.72Z" transform="translate(-3.72 -0.46)"/><path class="cls-16" d="M325.33,189.43,321,105.71s-21.52-1.29-27.93-1.29c-3.49,0-9.45,1.65-14.16,3.16-4.42,1.42-8.09,1.29-10.24,5.41l-35.3,67.66,21.69,2.07,7.23-8.27-3.68-5.57,13.19-31.1-.21,52.68Z" transform="translate(-3.72 -0.46)"/><path class="cls-17" d="M271.36,125.44,248,167.72l7.29,8.53a12.81,12.81,0,0,0,5.78-.32l1.29-1.48-3.68-5.57,13.19-31.1Z" transform="translate(-3.72 -0.46)"/><path class="cls-18" d="M290,172.5c-.9-.3-8.15-4.53-13.58-4.53s-12.08,5.74-12.08,5.74-.9,3,2.72,2.41,6-.9,6-.9-6.34,3.32-2.12,3.92,22,0,22,0Z" transform="translate(-3.72 -0.46)"/><path class="cls-19" d="M288.69,184.78H218.94v-5.11h69.75a2.55,2.55,0,0,1,2.55,2.56h0A2.55,2.55,0,0,1,288.69,184.78Z" transform="translate(-3.72 -0.46)"/><path class="cls-20" d="M269.55,184.78H202.3a6.57,6.57,0,0,1-6.35-4.87l-11.87-44.73a6.56,6.56,0,0,1,6.34-8.24h58.73a6.55,6.55,0,0,1,6.34,4.88Z" transform="translate(-3.72 -0.46)"/><path class="cls-21" d="M190.42,126.94a6.56,6.56,0,0,0-6.34,8.24L196,179.91a6.56,6.56,0,0,0,2.22,3.4l40.88-56.37Z" transform="translate(-3.72 -0.46)"/><path class="cls-4" d="M229.94,159.82a4,4,0,0,1-4.1,5.28,7.32,7.32,0,0,1-6.76-5.28,4,4,0,0,1,4.1-5.28A7.32,7.32,0,0,1,229.94,159.82Z" transform="translate(-3.72 -0.46)"/><path class="cls-18" d="M290.93,94c.6,1.2,4.83,17.81,4.83,17.81a5.34,5.34,0,0,0,5.13,2.41c3.62-.3,5.13-5.43,5.13-5.43L299.68,88Z" transform="translate(-3.72 -0.46)"/><path class="cls-18" d="M313.27,83.78c0,11.44-12.14,24.1-23.58,24.1s-17.84-12.66-17.84-24.1a20.71,20.71,0,1,1,41.42,0Z" transform="translate(-3.72 -0.46)"/><path class="cls-4" d="M294.25,106.69,291.83,113l1.51,6.64,4.83-7,4.83,7.85,5.44-9.66-3.62-6.34s-1.82,4.23-5.74,5.14S294.25,106.69,294.25,106.69Z" transform="translate(-3.72 -0.46)"/><polygon class="cls-20" points="294.45 112.27 290.83 116.8 292.64 119.51 289.92 125.25 290.53 162.99 294.15 170.53 299.28 162.08 298.07 126.16 295.36 119.21 297.47 116.19 294.45 112.27"/><polygon class="cls-22" points="319.86 122.72 321.17 188.91 290.04 188.59 319.86 122.72"/><path class="cls-16" d="M321,105.71l2.87,62.38L295.07,174l3.93,7.54,41.27,2.39-5.63-61.7a18.37,18.37,0,0,0-10.15-14.79Z" transform="translate(-3.72 -0.46)"/><polygon class="cls-4" points="286.3 172.04 292.04 172.65 297.17 181.1 287.52 181.77 286.3 172.04"/><path class="cls-5" d="M261.28,200.74l-51,13,26,102.06,8.95-4.47-7.61-87.74,45.66-14.32L256.8,224.47l.45,83.25h8.06s22.38-81.46,24.61-81.46,39.84-25.07,39.84-25.07Z" transform="translate(-3.72 -0.46)"/><polygon class="cls-5" points="205.03 323.36 240.51 320.84 241.49 309.66 203.56 318.29 205.03 323.36"/><polygon class="cls-5" points="233.83 329.65 240.99 330.54 261.14 322.93 261.58 307.27 253.53 307.27 249.94 317.12 239.09 323.68 233.83 329.65"/><path class="cls-23" d="M271.13,76.42c-.81,1.48-1.64,3.22-1,4.8.74,1.94,3.14,2.53,5.2,2.77a81.34,81.34,0,0,0,10.7.55,32.78,32.78,0,0,0,7.06-.71c3.77-.88,7.21-2.81,10.58-4.71,2.41-1.36,5.08-3.07,5.51-5.8s-1.53-5.15-3.36-7.19a22.79,22.79,0,0,0-3.34-3.25,14.56,14.56,0,0,0-10.89-2.23C282.24,62.15,275.49,68.43,271.13,76.42Z" transform="translate(-3.72 -0.46)"/><path class="cls-23" d="M305,83.12a2.21,2.21,0,0,1,2.77-1.3,3.17,3.17,0,0,1,2,2.57,5.77,5.77,0,0,1-.64,3.3,8.13,8.13,0,0,0-.66,1.52,5.92,5.92,0,0,0-.1,1.39c0,2,.07,4.05.1,6.08,1.67-.64,2.65-2.34,3.49-3.92,1.85-3.46,3.75-7.15,3.53-11.07-.18-3.25-1.79-6.22-3.43-9A4.87,4.87,0,0,0,310.77,71a3.33,3.33,0,0,0-2.86-.31,9.8,9.8,0,0,0-2.6,1.41l-2.41,1.65a5.56,5.56,0,0,0-2,1.95c-.77,1.53.3,2.17,1.19,3.1C302.53,79.31,301.72,89.37,305,83.12Z" transform="translate(-3.72 -0.46)"/><path class="cls-24" d="M274.57,100.45c-2.74,0-5.79-2.33-6.81-5.19a4.4,4.4,0,0,1,.31-4,3.52,3.52,0,0,1,3-1.42c2.74,0,5.8,2.33,6.81,5.19a4.35,4.35,0,0,1-.3,4A3.55,3.55,0,0,1,274.57,100.45Zm-3.5-9.84a2.75,2.75,0,0,0-2.34,1.08,3.63,3.63,0,0,0-.21,3.3c.92,2.56,3.63,4.65,6.05,4.65a2.79,2.79,0,0,0,2.35-1.08,3.63,3.63,0,0,0,.2-3.3C276.21,92.7,273.5,90.61,271.07,90.61Z" transform="translate(-3.72 -0.46)"/><path class="cls-24" d="M288.31,100.45c-2.74,0-5.8-2.33-6.81-5.19a4.4,4.4,0,0,1,.3-4,3.54,3.54,0,0,1,3-1.42c2.74,0,5.79,2.33,6.81,5.19a4.41,4.41,0,0,1-.3,4A3.55,3.55,0,0,1,288.31,100.45Zm-3.5-9.84a2.77,2.77,0,0,0-2.35,1.08,3.63,3.63,0,0,0-.2,3.3c.91,2.56,3.62,4.65,6.05,4.65a2.76,2.76,0,0,0,2.34-1.08,3.63,3.63,0,0,0,.21-3.3C289.94,92.7,287.23,90.61,284.81,90.61Z" transform="translate(-3.72 -0.46)"/><path class="cls-5" d="M364,51.43c.22,3.25,2,6.49,1.1,9.62-.73,2.57-3.13,4.4-3.87,7-.83,2.91.64,5.94,2.08,8.61,1.2,2.23,2.87,4.77,5.41,4.78a7,7,0,0,0,3.14-1l7.24-3.63A11.53,11.53,0,0,0,382,74.92a11.34,11.34,0,0,0,2.5-4.52c1.86-5.11,3.52-10.47,3.09-15.89s-3.39-11-8.44-13c-2.83-1.13-11.11-2.13-13.54.29-1.08,1.08-.54,2.23-.68,3.6C364.75,47.48,363.84,49.3,364,51.43Z" transform="translate(-3.72 -0.46)"/><path class="cls-14" d="M369.85,67.67l-2.47.68c-10.25,6.67-16.25,15.94-17.54,28.1l-5.22,84.62,7.85-3.52Z" transform="translate(-3.72 -0.46)"/><path class="cls-20" d="M421.68,67l-41.86-1.7c-3.53-.15-9.76,1.11-13.15,2.13L361.34,70l9.39,44.83h0a89.17,89.17,0,0,0-12.32,47.94l5,61.14h46.91l6-64.49a88.9,88.9,0,0,0-7.14-38.49l-2.55-6Z" transform="translate(-3.72 -0.46)"/><path class="cls-25" d="M371.4,85a12,12,0,0,0,14.23,6.53,30.37,30.37,0,0,0,8.91-3.81,48.47,48.47,0,0,0,13.5-11c2.58-3.2,4.58-7.76,2.49-11.29-1.35-2.27-4-3.39-6.54-4.07C390.4,57.71,361,65.45,371.4,85Z" transform="translate(-3.72 -0.46)"/><path class="cls-14" d="M403.66,45.19c0,11.13-11.86,26.23-23,26.23s-17.3-15.1-17.3-26.23a20.14,20.14,0,0,1,40.28,0Z" transform="translate(-3.72 -0.46)"/><path class="cls-14" d="M421.68,67l29,37.84a8.41,8.41,0,0,1-2.29,12.3l-33.93,20.77-4.2-6.55,23.29-18.66a4.13,4.13,0,0,0,.81-5.58l-17.65-25Z" transform="translate(-3.72 -0.46)"/><path class="cls-14" d="M328.56,184.8h18.23a5.57,5.57,0,0,0,5.54-5.17l.14-2.08Z" transform="translate(-3.72 -0.46)"/><path class="cls-14" d="M378.1,58.74c-.27-.68,4.81,13.29,4.81,13.29s1.14,5.73,6,4.35,1.83-21.77,1.14-22S378.55,59.88,378.1,58.74Z" transform="translate(-3.72 -0.46)"/><path class="cls-5" d="M390,42.55c-9.32,5.67-19.13,11.51-30,12.17,2.45-3,2-7.39,2.4-11.27a21.39,21.39,0,0,1,28.35-17.7,11.78,11.78,0,0,1,5.82,4C400.6,35.31,394.37,39.91,390,42.55Z" transform="translate(-3.72 -0.46)"/><path class="cls-5" d="M389.2,64.91c.62,3,2.52,5.64,2.86,8.68a17.55,17.55,0,0,1-.68,5.88l-1.64,7a20.83,20.83,0,0,0,8.78-4.4,34.12,34.12,0,0,0,12.1-31.88,55.05,55.05,0,0,0-2.87-9.78,24.51,24.51,0,0,0-3.59-7,9.25,9.25,0,0,0-6.68-3.68c-3.14-.08-6,2-7.83,4.53a10.06,10.06,0,0,0-2.13,5.93c0,2.14.79,9.42,2.75,10.28a5.11,5.11,0,0,1,7.15,2.56c1.52,4.32-2.35,5.15-4.93,6.63C389.29,61.53,388.5,61.56,389.2,64.91Z" transform="translate(-3.72 -0.46)"/><path class="cls-5" d="M410.6,51.77c2,1.49,4.22,2.62,6,4.38s2.9,4.42,2,6.71a11.58,11.58,0,0,1-3,3.57c-1.1,1.1-2.12,2.52-1.94,4.07a6.56,6.56,0,0,0,1.3,2.76c1.49,2.25,2.77,4.88,2.33,7.53a7.36,7.36,0,0,1-3.74,5,10.18,10.18,0,0,1-6.31,1,20.74,20.74,0,0,0-3.74-.5c-3.31.15-5.92,3.15-9.22,3.53a6.07,6.07,0,0,1-6.7-7.06c.52-3,3.18-5.17,5.62-7s5.06-4.1,5.42-7.16c.27-2.28-.8-4.57-.52-6.85.4-3.27,3.44-5.67,4.17-8.88.42-1.83-.25-6.44,2.62-6.39C407.06,46.53,409,50.55,410.6,51.77Z" transform="translate(-3.72 -0.46)"/><path class="cls-5" d="M386.54,48.12a24.25,24.25,0,0,1-2.09,3.12l-3.18,4.25A22.85,22.85,0,0,0,382,47.1a4,4,0,0,1,0-1.29,3.41,3.41,0,0,1,1.58-1.8c1-.64,3.47-2.72,4.46-1.38C388.85,43.68,387.06,47.15,386.54,48.12Z" transform="translate(-3.72 -0.46)"/><polygon class="cls-5" points="407.37 124.78 405.46 126.48 412.12 134.27 407.37 124.78"/><path class="cls-26" d="M552.61,189.43l-4.29-83.72s-21.53-4.54-27.94-4.54c-3.48,0-9.45,1.66-14.15,3.16A17.63,17.63,0,0,0,496,113l-35.31,67.66,21.7,2.07,7.23-8.27-3.68-5.57,13.19-31.1-.22,52.68Z" transform="translate(-3.72 -0.46)"/><path class="cls-14" d="M549.73,81.47A20.71,20.71,0,0,1,529,102.18c-6.33,0-10.72-6.57-14.52-11C511.44,87.53,509,86.5,509,81.4c0-11.44,8.56-20.64,20-20.64A20.71,20.71,0,0,1,549.73,81.47Z" transform="translate(-3.72 -0.46)"/><polygon class="cls-5" points="493.11 184.33 420.81 184.33 405.46 126.48 477.76 126.48 493.11 184.33"/><polygon class="cls-4" points="493.11 184.33 423.07 184.33 407.37 124.78 478.24 126.48 493.11 184.33"/><rect class="cls-5" x="421.4" y="180.13" width="49.57" height="4.19"/><path class="cls-27" d="M523.49,175l27.7-13.24-2.29-44.65-4.79.29L508.2,155.13s-5.35,14-9.26,25l0,10.34,37.24-.71Z" transform="translate(-3.72 -0.46)"/><polygon class="cls-20" points="473.86 170.95 435.27 170.95 426.63 138.15 465.67 139.09 473.86 170.95"/><path class="cls-15" d="M488.56,200.74l-51,13,26,102.06,9-4.47-7.61-87.74,45.65-14.32-26.41,15.22.45,83.25h8.06s22.38-81.46,24.62-81.46,39.84-25.07,39.84-25.07Z" transform="translate(-3.72 -0.46)"/><polygon class="cls-5" points="432.31 323.36 467.8 320.84 468.77 309.66 430.84 318.29 432.31 323.36"/><path class="cls-24" d="M516,109.91a56.09,56.09,0,0,0,2.24,11.85,4.34,4.34,0,0,0,1.27,2.29c1.43,1.12,3.51.18,5-.86a35.84,35.84,0,0,0,7-6.36,12.5,12.5,0,0,0,2.85-5.34,5.9,5.9,0,0,0-1.63-5.61c-2.38-2.06-7.52-2-10.53-2.06C518,103.73,515.63,105.47,516,109.91Z" transform="translate(-3.72 -0.46)"/><polygon class="cls-5" points="461.11 329.65 468.28 330.54 488.42 322.93 488.87 307.27 480.81 307.27 477.23 317.12 466.37 323.68 461.11 329.65"/><path class="cls-14" d="M521.23,91.92l-1.53,17.45s1.22,7.35,5.51,6.13,4.9-4.59,4.9-4.59L532,90.08Z" transform="translate(-3.72 -0.46)"/><path class="cls-23" d="M536.73,74.76c3.26-.13,6.62-.35,9.56-1.77s5.4-4.3,5.34-7.57-3.42-6.33-6.52-5.32c-.71.23-1.35.63-2.08.8a6.79,6.79,0,0,1-3.41-.4c-8.37-2.47-17.74-4.12-25.56-.23a8,8,0,0,0-3.64,3.11,9.76,9.76,0,0,0-.85,3.67q-.46,5.07-.61,10.17c2.26-1.23,4.51-2.69,6.87-3.72s3.77,0,6.22.49A60.15,60.15,0,0,0,536.73,74.76Z" transform="translate(-3.72 -0.46)"/><path class="cls-28" d="M517.28,69.23a7.46,7.46,0,0,0-6,1.68,20.57,20.57,0,0,0-2.83,8.78,17.05,17.05,0,0,1,.42,3.33,8.76,8.76,0,0,0,.7,2.89c1.19,1.79,3.1,3,5,5.23a3.11,3.11,0,0,1,.23.28c2-3.47,5.28-11.37,5.89-12.17.93-1.21,3.94-4.86,3.4-6.48S518.77,69.5,517.28,69.23Z" transform="translate(-3.72 -0.46)"/><path class="cls-14" d="M517.31,77.66a2,2,0,0,0-.58-.62,2.12,2.12,0,0,0-1-.18c-1.36,0-2.93.1-3.75,1.19a4,4,0,0,0-.61,1.6,14.52,14.52,0,0,0-.19,4.11c.22,2.11,1.23,4.47,3.29,4.95a4,4,0,0,0,3.48-1.06C521.16,84.7,519.43,80.79,517.31,77.66Z" transform="translate(-3.72 -0.46)"/><path class="cls-23" d="M543.49,88.49a7.1,7.1,0,0,1,3.23-.22,2.63,2.63,0,0,1,2.13,2.18,7,7,0,0,1-.24,1.57,9.7,9.7,0,0,0,.95,4.81c1.24,3.39,2.06,7.43,0,10.4-1.93,2.79-5.74,3.56-9.13,3.41A25.56,25.56,0,0,1,517.87,93.4,17,17,0,0,1,517.54,83c.33-1,1.19-2.18,2.2-1.83a12.65,12.65,0,0,0,6.62,9.23C532.54,93.62,537.54,89.87,543.49,88.49Z" transform="translate(-3.72 -0.46)"/><path class="cls-5" d="M412.4,126.27l68.78,1.65,14.37,55.86h-68L412.4,126.27m-1.3-1,15.69,59.54h70L482,126.94l-70.86-1.7Z" transform="translate(-3.72 -0.46)"/><path class="cls-4" d="M524.55,184.78H425.12v-4.19h99.43a2.1,2.1,0,0,1,2.1,2.1h0A2.1,2.1,0,0,1,524.55,184.78Z" transform="translate(-3.72 -0.46)"/><path class="cls-19" d="M474.22,184.78h-49.1v-4.19h49.1a2.1,2.1,0,0,1,2.1,2.1h0A2.1,2.1,0,0,1,474.22,184.78Z" transform="translate(-3.72 -0.46)"/><path class="cls-26" d="M548.32,105.71l-18.09,47.8-46.12,6.14,1.82,9.23L545,167l15.94-42a10.07,10.07,0,0,0,.29-6.48,18.38,18.38,0,0,0-9.41-11Z" transform="translate(-3.72 -0.46)"/><path class="cls-14" d="M484.11,159.65l-24.87-13.28a2.69,2.69,0,0,0,.63,3.62c2,1.63,8.26,6.29,8.26,6.29v3.62c2.08,6.79,8.49,10,15.55,9.22l2.25-.24Z" transform="translate(-3.72 -0.46)"/><path class="cls-29" d="M585.45,184.68H555.74s-.86-2.15,3.88-3,18.08-1.29,18.08-1.29l3.44-3.88,4.74,1.29Z" transform="translate(-3.72 -0.46)"/><path class="cls-30" d="M609.84,93.89l-31.66,85.42,7.81,1.95L634.63,98s-1.4-5.39-9.66-10.56S609.84,93.89,609.84,93.89Z" transform="translate(-3.72 -0.46)"/><path class="cls-18" d="M610.71,54.74a20.73,20.73,0,0,0-28.63-6.27,21.71,21.71,0,0,0-9.49,16c-.31,3.2-.33,4.33,1,7.29s5,7.13,2.88,13.1c-.49,1.4-.09,3.54,1.55,4.19s3-1.11,4.62-1.18c3-.14,8.86,4.44,11,6.24a6.28,6.28,0,0,0,3.09,1.72,5.14,5.14,0,0,0,2.94-.71c4.55-2.36,7.32-7.08,9.59-11.67,2.12-4.29,4-8.84,4.36-13.6A20.64,20.64,0,0,0,610.71,54.74Z" transform="translate(-3.72 -0.46)"/><path class="cls-18" d="M609.92,94.78c.88.9,2,1.85,3.21,1.67a3.77,3.77,0,0,0,1.55-.74,23.39,23.39,0,0,0,3.52-3,3.83,3.83,0,0,0,1.31-2.41,3.55,3.55,0,0,0-.4-1.52c-2.09-4.72-6.39-8.31-7.9-13.25-.69-2.24-.76-4.63-1.53-6.84s-2.55-4.35-4.89-4.44A6.08,6.08,0,0,0,601,65.7a13.6,13.6,0,0,0-5.32,11.8,13.91,13.91,0,0,0,6,10.1A52.25,52.25,0,0,1,609.92,94.78Z" transform="translate(-3.72 -0.46)"/><path class="cls-23" d="M582.08,48.47a21,21,0,0,0-8.23,10.6c4,2,14.1-2.39,16.85-4.06a19.8,19.8,0,0,0,9.48,17.5c3.64,2.16,7.93,3.1,11.57,5.19a27.66,27.66,0,0,0,1.84-7.87,20.7,20.7,0,0,0-31.51-21.36Z" transform="translate(-3.72 -0.46)"/><path class="cls-18" d="M593.19,69.49a4.75,4.75,0,0,1,2.18-6.2,6.07,6.07,0,0,1,6.75,1.3,8.58,8.58,0,0,1,2.31,6.72c-.22,3.08-2.46,6.4-5.54,6.24a5.57,5.57,0,0,1-4.15-2.64,16.67,16.67,0,0,1-1.92-4.7" transform="translate(-3.72 -0.46)"/><polygon class="cls-4" points="617.57 83.63 611.67 76.78 602.33 93.92 605.76 104.78 618.14 90.87 617.57 83.63"/><path class="cls-15" d="M628,85l55.42,61.69-33.93,29.81L608,112.66c-4.25-6.11,2.25-19.6,6.49-25.72h0A9.35,9.35,0,0,1,628,85Z" transform="translate(-3.72 -0.46)"/><polygon class="cls-31" points="677.82 335.42 662.92 251.46 645.8 176.06 679.74 146.26 677.8 250.52 686.09 331.29 677.82 335.42"/><polygon class="cls-5" points="679.74 146.26 651.8 338.1 643.33 336.72 645.8 176.06 679.74 146.26"/><polygon class="cls-5" points="627.79 344.2 650.17 343.34 651.47 336.45 645.01 335.59 623.49 341.62 623.91 344.63 627.79 344.2"/><polygon class="cls-31" points="686.09 331.29 686.73 337.77 660.84 339.38 660.61 337.31 683.52 329.98 686.09 331.29"/><path class="cls-18" d="M574.38,184.68H544.67s-.86-2.15,3.88-3,19.1-1.19,19.1-1.19l2.42-4,6.48,2.48Z" transform="translate(-3.72 -0.46)"/><path class="cls-15" d="M616.67,90.54l-22.54,42.54-27,47.2,8.79.33L600,147.4l31.9-40.77a11.11,11.11,0,0,0,3-13.67h0A11.12,11.12,0,0,0,616.67,90.54Z" transform="translate(-3.72 -0.46)"/><path class="cls-32" d="M629.53,145.8c-.62-8.64-3.66-35.52-3.66-35.52l-9.29,15.63Z" transform="translate(-3.72 -0.46)"/><path class="cls-14" d="M383.87,216.57c-1.52,0-13.65,5.05-13.65,5.05l9.48,77.83a48.68,48.68,0,0,1-7.15,2.18c-4.65,1.34-8.82,1.81-12.93,4.56-.34.23-.44,1.41-.5,1.82-.14.89,1.08,1.29,2,1.33,5.61.24,11.24.27,16.86.07,3.58-.13,6.51-2,9.7-3.59,1.85-.95,2.55-3.77,2.45-5.09C390.08,300.33,385.3,216.57,383.87,216.57Z" transform="translate(-3.72 -0.46)"/><path class="cls-5" d="M373.45,306.49c5.41-.5,12.69-2.92,16.91-6.34.37,3.59-.68,7-7.52,8.79-7.89,2-16.34,4.27-24.15,1.95-.83-.25-1.79-.77-1.77-1.64a2,2,0,0,1,.46-1.07c1.39-1.85,5.5-5.15,7.94-4.35,1.27.42,2.18,1.89,3.63,2.33A11.75,11.75,0,0,0,373.45,306.49Z" transform="translate(-3.72 -0.46)"/><path class="cls-14" d="M383.83,309.34" transform="translate(-3.72 -0.46)"/><path class="cls-14" d="M412.84,300.73c0-.4-4.81-84.16-6.24-84.16S393,221.62,393,221.62l9.48,77.83c1.6,4.2,3,8.2,5.29,12a24.91,24.91,0,0,0,9.42,9.39,1.35,1.35,0,0,0,1.37.15,1.18,1.18,0,0,0,.42-.7c.67-2.31-.31-4.74-1.28-6.95C415.89,309.37,413.18,305.11,412.84,300.73Z" transform="translate(-3.72 -0.46)"/><path class="cls-5" d="M404.91,311c2.42,4.49,5.4,9.06,10,11.16a4.29,4.29,0,0,0,2.52.46,3.23,3.23,0,0,0,2.28-2.42,6.94,6.94,0,0,0-.19-3.47,17.84,17.84,0,0,0-2.09-4.85,1.54,1.54,0,0,0-.92-.8c-.53-.08-1,.38-1.41.69a4,4,0,0,1-4.21,0,10.28,10.28,0,0,1-3.11-3.12c-1.76-2.42-3.33-6.87-5.77-8.26C401.29,304,403.21,307.86,404.91,311Z" transform="translate(-3.72 -0.46)"/><circle class="cls-5" cx="268.17" cy="323.17" r="5.79"/><circle class="cls-5" cx="337.88" cy="323.17" r="5.79"/><path class="cls-5" d="M311.06,323.63a5.79,5.79,0,1,1-5.79-5.79A5.79,5.79,0,0,1,311.06,323.63Z" transform="translate(-3.72 -0.46)"/><path class="cls-33" d="M271.89,323.63v-3A12.15,12.15,0,0,1,284,308.48h22.78v-59" transform="translate(-3.72 -0.46)"/><path class="cls-33" d="M341,323.63v-3a12.15,12.15,0,0,0-12.14-12.14H306v-59" transform="translate(-3.72 -0.46)"/><line class="cls-33" x1="301.55" y1="323.17" x2="301.55" y2="308.03"/><rect class="cls-5" x="295.38" y="278.21" width="12.85" height="29.3"/><rect class="cls-5" x="297.44" y="249.54" width="8.22" height="33.3"/><circle class="cls-5" cx="490.33" cy="323.17" r="5.79"/><circle class="cls-5" cx="560.04" cy="323.17" r="5.79"/><circle class="cls-5" cx="523.71" cy="323.17" r="5.79"/><path class="cls-33" d="M494.06,323.63v-3a12.14,12.14,0,0,1,12.14-12.14H529v-59" transform="translate(-3.72 -0.46)"/><path class="cls-33" d="M563.12,323.63v-3A12.14,12.14,0,0,0,551,308.48H528.2v-59" transform="translate(-3.72 -0.46)"/><line class="cls-33" x1="523.71" y1="323.17" x2="523.71" y2="308.03"/><rect class="cls-5" x="517.54" y="278.21" width="12.85" height="29.3"/><rect class="cls-5" x="519.6" y="249.54" width="8.22" height="33.3"/><rect class="cls-34" x="174.94" y="190.52" width="397.67" height="63.01"/><rect class="cls-5" x="175.51" y="191.02" width="6.69" height="160.64"/><rect class="cls-5" x="570.41" y="191.02" width="6.69" height="160.64"/><polygon class="cls-35" points="577.07 227.73 174.45 190.93 577.07 190.93 577.07 227.73"/><rect class="cls-12" x="159.44" y="184.33" width="432.38" height="10.71"/></svg>