<svg id="Layer_1" data-name="Layer 1" xmlns="http://www.w3.org/2000/svg" viewBox="0 0 512 512"><title>web-development</title><g id="web-development"><g id="label"><path d="M256,512C114.84,512,0,397.16,0,256S114.84,0,256,0,512,114.84,512,256,397.16,512,256,512Zm0-490.54C126.67,21.46,21.46,126.67,21.46,256S126.67,490.54,256,490.54,490.54,385.33,490.54,256,385.33,21.46,256,21.46Z" fill="#34495e"/></g><path id="web-development-2" data-name="web-development" d="M390.19,108.84H121.82a12.87,12.87,0,0,0-12.87,12.87V340.54a12.88,12.88,0,0,0,12.87,12.89H390.19a12.89,12.89,0,0,0,12.87-12.89V121.71A12.88,12.88,0,0,0,390.19,108.84Zm-9.33,101V323.89A11.06,11.06,0,0,1,369.8,335H142.2a11.06,11.06,0,0,1-11.06-11.06V138.18a11.07,11.07,0,0,1,11.06-11.06H369.8a11.07,11.07,0,0,1,11.06,11.06ZM317.54,384.33v15.54a3.3,3.3,0,0,1-3.29,3.29H197.75a3.3,3.3,0,0,1-3.3-3.29V384.33a3.3,3.3,0,0,1,3.3-3.31h22.82V358.9h70.84V381h22.83A3.3,3.3,0,0,1,317.54,384.33ZM256,158.91a73.58,73.58,0,1,0,73.57,73.58A73.67,73.67,0,0,0,256,158.91Zm-5,7.33c1.8.45-2.26,2.69-5.2,4.51s-6.52,3.6-9.66,3.82-5.43,1.36-7.89,2.49-1.35-.9.89-2.71,4.07-2,6.09-3.39,5.16-3.86,6.77-4.49C245.37,165.11,249.2,165.79,251,166.24ZM202.1,268.55c-.21,1.81-2.68.76-1.8,3.16,1.07,2.93,1.61,4.68,1.65,6.16a70.37,70.37,0,0,1-13.25-24c-.18-.56-.35-1.12-.51-1.7-.11-.37-.22-.76-.32-1.14-.23-.85-.45-1.72-.65-2.6l-.05-.21a71.66,71.66,0,0,1-1.74-15.7,73.63,73.63,0,0,1,.79-10.68,11,11,0,0,1,2.37,3.48c1.13,2.91.44,4.71,2,8.09a12.8,12.8,0,0,1,1.13,7.67c-.25,2,.66,2.26,2.23,2.26s3.16,2.24,5,4.06,3.82,4.05,4,5.85-1.58,4.28-2,6.53S202.33,266.74,202.1,268.55Zm14.2-86.76c-1.58.66-3.61.45-5,.66s-1.35,2.49-2.72,3.62S205.73,187.2,203,189c-1.23.81-3.09,1.91-4.73,2.87a70.9,70.9,0,0,1,38.93-27.46,10,10,0,0,1-2.21,3,30.75,30.75,0,0,1-6.74,4.73c-2,.89-6.3,1.81-8.33,3.61S217.87,181.12,216.31,181.79Zm107,31.55c-.43-1.57-2.24-2.71-2.24-1.57s-.45,5.61-.45,8.11.23,5.85.23,9.47-.45,2.92-1.81.88-2-5.4-2.92-7.2-2.93-5.85-2.93-5.85c-2.25-.89-3.83-2.93-5.18-2.93s-6.31,1.34-8.12.9a23.29,23.29,0,0,1-5.64-2c-.91-.66-1.56-2.26-2.69-1.34s3.39,5.84,4.74,6.53,3.81-.69,4.49-.23,2.7,1.81,2.48,2.93-1.12,5.19-2.48,6.54-5.64,4-7.22,5.18-3.37,1.35-3.61,0-.89-4.51-2.92-6.3-1.79-2.26-2.71-3.83-2.92-3.14-4.49-5.66-2.71-1.34-2.71-1.34a76.49,76.49,0,0,0,3.6,6.76c.9,1.13,2.93,6.09,4.28,7.65s3.62,2.71,4.29,4.29a3.42,3.42,0,0,0,4.27,1.81c1.58-.7,4.07-1.37,4.29-.7s-.69,5-2.26,8.57-6.52,5.86-7.44,7.66-1.36,7.44-1.12,9,0,6.53-1.35,8.1-4.28,4.3-5,6.11a10.69,10.69,0,0,1-3.38,4.26c-1.35,1.14-4.29,5.44-7.45,6.77s-7.87,2-9.22.91-1.36-2.47-2.7-4.51-.46-4.51-1.36-5.87-2.93-3.16-3.17-4.72,1.59-4.51,1.82-6.09a12.82,12.82,0,0,0-.9-6.29c-.92-2-3.16-2.26-4.29-5.19s.92-5.41.45-6.76-1.8-1.14-3.38-1.35-2.48-1.81-3.83-2.26-4.73,1.34-9,1.34-5.4-.65-7.2-2.46-2.92-1.83-3.37-3.84-2.95-5-3.38-6.74,1.35-3.84,1.8-5.86a22.2,22.2,0,0,1,2.71-7.21c1.8-3.16,5.18-3.84,6.29-5.19s2.94-4.74,4.53-5.2,3.81.23,4.72-.66,2.93-.89,5.17-1.58,4.07-1.57,4.74-2.93,2.48-2.24,2.48-3.38-1.58-1.81-3.85-1.13-2.46,1.58-4.49,3.39-3.84,3.83-5.19,4a9.57,9.57,0,0,1-5.19-1.13c-.9-.68.89-4.5,1.59-5.39s.88-1.81,2.47-1.59,3.61,1.15,4.73.44.89-2.92.45-4-3.84-1.36-5.42-1.36-3.16-.46-1.35-1.58,3.16-4.5,4.29-5.85,4.72-1.58,6.53-2.7,6.07-3.84,7.89-3.84,3.16-2,5.41-3.37,5,.43,5,.43,2.24,1.81,4.06,1.14,3.83-3.59,5.41-4.51,5.19.23,5.19.23c-.71-2-7-5.19-7.44-6.31s5.19.68,3.36-1.36a2.21,2.21,0,0,1-.51-.86,70.83,70.83,0,0,1,49,51.45A18,18,0,0,1,323.32,213.34Z" fill="#34495e"/></g></svg>